# xmcd
#
# Track frame offsets: 
#        150
#        21148
#        42300
#        65001
#        82407
#        102356
#        117550
#        134990
#        154339
#        173363
#
# Disc length: 2488 seconds
#
# Revision: 1
# Processed by: cddbd v1.5.2PL0 Copyright (c) Steve Scherf et al.
# Submitted via: ExactAudioCopy v1.0b3
#
DISCID=9209b60a
DTITLE=Chick Willis - From The Heart And Soul
DYEAR=2001
DGENRE=Blues
TTITLE0=Ribshack Blues Cafe
TTITLE1=Someday Baby
TTITLE2=One Eyed Woman
TTITLE3=I Found The Kinda Love
TTITLE4=What Goes Up
TTITLE5=I Know A Hoochie Mama
TTITLE6=Come Back Home
TTITLE7=Black Widow Spider
TTITLE8=Betty Boo
TTITLE9=Mr. D.J.
EXTD=
EXTT0=
EXTT1=
EXTT2=
EXTT3=
EXTT4=
EXTT5=
EXTT6=
EXTT7=
EXTT8=
EXTT9=
PLAYORDER=
